<svg width="500" height="350" viewBox="0 0 500 350" fill="none" xmlns="http://www.w3.org/2000/svg">
  <!-- Background elements -->
  <rect x="50" y="50" width="400" height="250" rx="8" fill="white" fill-opacity="0.2"/>
  
  <!-- Grid lines -->
  <path d="M100 250H400" stroke="#E5E7EB" stroke-width="1"/>
  <path d="M100 200H400" stroke="#E5E7EB" stroke-width="1"/>
  <path d="M100 150H400" stroke="#E5E7EB" stroke-width="1"/>
  <path d="M100 100H400" stroke="#E5E7EB" stroke-width="1"/>
  
  <!-- Vertical grid lines -->
  <path d="M150 100V250" stroke="#E5E7EB" stroke-width="1"/>
  <path d="M200 100V250" stroke="#E5E7EB" stroke-width="1"/>
  <path d="M250 100V250" stroke="#E5E7EB" stroke-width="1"/>
  <path d="M300 100V250" stroke="#E5E7EB" stroke-width="1"/>
  <path d="M350 100V250" stroke="#E5E7EB" stroke-width="1"/>
  
  <!-- Axes -->
  <path d="M100 250V100" stroke="#9CA3AF" stroke-width="2"/>
  <path d="M100 250H400" stroke="#9CA3AF" stroke-width="2"/>
  
  <!-- Bar chart -->
  <rect x="130" y="150" width="30" height="100" rx="4" fill="url(#paint0_linear)"/>
  <rect x="180" y="120" width="30" height="130" rx="4" fill="url(#paint1_linear)"/>
  <rect x="230" y="180" width="30" height="70" rx="4" fill="url(#paint2_linear)"/>
  <rect x="280" y="140" width="30" height="110" rx="4" fill="url(#paint3_linear)"/>
  <rect x="330" y="100" width="30" height="150" rx="4" fill="url(#paint4_linear)"/>
  
  <!-- Line chart -->
  <path d="M100 80C115 60 140 75 150 70C160 65 190 40 200 45C210 50 240 90 250 80C260 70 290 50 300 55C310 60 340 30 350 40C360 50 370 60 385 65" stroke="url(#paint5_linear)" stroke-width="3" stroke-linecap="round"/>
  
  <!-- Data points -->
  <circle cx="150" cy="70" r="4" fill="#3B82F6"/>
  <circle cx="200" cy="45" r="4" fill="#3B82F6"/>
  <circle cx="250" cy="80" r="4" fill="#3B82F6"/>
  <circle cx="300" cy="55" r="4" fill="#3B82F6"/>
  <circle cx="350" cy="40" r="4" fill="#3B82F6"/>
  
  <!-- KPI indicators -->
  <rect x="410" y="70" width="40" height="20" rx="4" fill="#10B981" fill-opacity="0.3"/>
  <rect x="410" y="100" width="40" height="20" rx="4" fill="#3B82F6" fill-opacity="0.3"/>
  <rect x="410" y="130" width="40" height="20" rx="4" fill="#8B5CF6" fill-opacity="0.3"/>
  
  <!-- Gradients -->
  <defs>
    <linearGradient id="paint0_linear" x1="145" y1="150" x2="145" y2="250" gradientUnits="userSpaceOnUse">
      <stop stop-color="#3B82F6"/>
      <stop offset="1" stop-color="#3B82F6" stop-opacity="0.5"/>
    </linearGradient>
    <linearGradient id="paint1_linear" x1="195" y1="120" x2="195" y2="250" gradientUnits="userSpaceOnUse">
      <stop stop-color="#3B82F6"/>
      <stop offset="1" stop-color="#3B82F6" stop-opacity="0.5"/>
    </linearGradient>
    <linearGradient id="paint2_linear" x1="245" y1="180" x2="245" y2="250" gradientUnits="userSpaceOnUse">
      <stop stop-color="#3B82F6"/>
      <stop offset="1" stop-color="#3B82F6" stop-opacity="0.5"/>
    </linearGradient>
    <linearGradient id="paint3_linear" x1="295" y1="140" x2="295" y2="250" gradientUnits="userSpaceOnUse">
      <stop stop-color="#3B82F6"/>
      <stop offset="1" stop-color="#3B82F6" stop-opacity="0.5"/>
    </linearGradient>
    <linearGradient id="paint4_linear" x1="345" y1="100" x2="345" y2="250" gradientUnits="userSpaceOnUse">
      <stop stop-color="#3B82F6"/>
      <stop offset="1" stop-color="#3B82F6" stop-opacity="0.5"/>
    </linearGradient>
    <linearGradient id="paint5_linear" x1="100" y1="60" x2="385" y2="60" gradientUnits="userSpaceOnUse">
      <stop stop-color="#10B981"/>
      <stop offset="1" stop-color="#3B82F6"/>
    </linearGradient>
  </defs>
</svg> 